<svg xmlns="http://www.w3.org/2000/svg" width="64" height="64" viewBox="0 0 64 64" fill="none">
  <defs>
    <linearGradient id="dl-icon" x1="10" y1="10" x2="54" y2="54" gradientUnits="userSpaceOnUse">
      <stop stop-color="#0EA5E9" />
      <stop offset="1" stop-color="#6366F1" />
    </linearGradient>
    <linearGradient id="dl-heart" x1="16" y1="16" x2="48" y2="48" gradientUnits="userSpaceOnUse">
      <stop stop-color="#F43F5E" />
      <stop offset="1" stop-color="#FB7185" />
    </linearGradient>
  </defs>
  <rect x="6" y="6" width="52" height="52" rx="16" fill="#0B1220" />
  <rect x="10" y="10" width="44" height="44" rx="14" fill="url(#dl-icon)" opacity="0.18" />
  <path d="M32 49c-.5 0-1-.1-1.4-.3C22.2 45 17 39.1 17 33.3 17 28.2 21.1 24 26.4 24c2.7 0 5.2 1.2 6.6 3.1 1.4-1.9 3.9-3.1 6.6-3.1 5.3 0 9.4 4.2 9.4 9.3 0 5.8-5.2 11.7-13.6 15.4-.4.2-.9.3-1.4.3z" fill="url(#dl-heart)" />
  <path d="M25 31h6" stroke="#F8FAFC" stroke-width="3" stroke-linecap="round" />
  <path d="M33 39h6" stroke="#F8FAFC" stroke-width="3" stroke-linecap="round" />
</svg>
